# xmcd CD database file
#
# Track frame offsets:
#	150
#	19904
#	41086
#	56493
#	82272
#	99504
#	115494
#	133713
#	150670
#	178272
#	199647
#
# Disc length: 3003 seconds
#
# Revision: 8
# Processed by: cddbd v1.5.1PL0 Copyright (c) Steve Scherf et al.
# Submitted via: CDex 1.51
#
DISCID=990bb90b
DTITLE=GOING STEADY - さくらの唄
DYEAR=2001
DGENRE=Punk Rock
TTITLE0=アホンダラ行進曲
TTITLE1=東京少年
TTITLE2=BABY BABY
TTITLE3=銀河鉄道の夜
TTITLE4=TOO YOUNG TO CRY
TTITLE5=愛しておくれ
TTITLE6=グレープフルーツ・ムーン
TTITLE7=もしも君が泣くならば
TTITLE8=佳代
TTITLE9=GO FOR IT
TTITLE10=星に願いを
EXTD=YEAR: 2001
EXTT0=
EXTT1=
EXTT2=
EXTT3=
EXTT4=
EXTT5=
EXTT6=
EXTT7=
EXTT8=
EXTT9=
EXTT10=
PLAYORDER=
